<svg width="310" height="128" viewBox="0 0 310 128" fill="none" xmlns="http://www.w3.org/2000/svg">
<g filter="url(#filter0_d_2003_157)">
<path d="M78.254 24.4558C83.9935 27.7695 85.96 35.1086 82.6463 40.8481L63.1217 74.6657C57.6124 84.208 45.4107 87.4775 35.8684 81.9682V81.9682C26.326 76.4589 23.0566 64.2572 28.5659 54.7149L48.0904 20.8973C51.4042 15.1578 58.7432 13.1913 64.4828 16.505L78.254 24.4558Z" fill="#4ECDBE"/>
</g>
<g filter="url(#filter1_d_2003_157)">
<path d="M87.8445 33.16C92.5308 37.8463 92.5308 45.4443 87.8445 50.1305L56.1701 81.8049C49.011 88.9641 37.4037 88.9641 30.2445 81.8049V81.8049C23.0853 74.6458 23.0853 63.0385 30.2445 55.8793L61.9189 24.2049C66.6052 19.5187 74.2032 19.5186 78.8894 24.2049L87.8445 33.16Z" fill="#4EA7CD"/>
</g>
<g filter="url(#filter2_d_2003_157)">
<path d="M26.7809 86.3163C20.1535 74.8373 24.0865 60.1592 35.5655 53.5317L73.6706 31.5317C79.4102 28.218 86.7492 30.1845 90.0629 35.924L113.563 76.6272C116.877 82.3667 114.91 89.7058 109.171 93.0195L71.0655 115.02C59.5865 121.647 44.9083 117.714 38.2809 106.235L26.7809 86.3163Z" fill="#4E72CD"/>
</g>
<mask id="path-4-inside-1_2003_157" fill="white">
<path d="M67.422 76.709C64.1083 70.9694 66.0748 63.6304 71.8143 60.3167L96.063 46.3167L108.063 67.1013L83.8143 81.1013C78.0748 84.415 70.7357 82.4485 67.422 76.709V76.709Z"/>
</mask>
<path d="M67.422 76.709C64.1083 70.9694 66.0748 63.6304 71.8143 60.3167L96.063 46.3167L108.063 67.1013L83.8143 81.1013C78.0748 84.415 70.7357 82.4485 67.422 76.709V76.709Z" fill="white"/>
<path d="M61.422 66.3167L96.063 46.3167L61.422 66.3167ZM108.063 67.1013L73.422 87.1013L108.063 67.1013ZM73.422 87.1013L61.422 66.3167L73.422 87.1013ZM97.795 45.3167L109.795 66.1013L106.331 68.1013L94.3309 47.3167L97.795 45.3167Z" fill="#4E72CD" mask="url(#path-4-inside-1_2003_157)"/>
<rect x="87.3502" y="61.2449" width="8" height="8" rx="4" transform="rotate(-30 87.3502 61.2449)" fill="#4E72CD"/>
<path d="M123.44 78.2832V49.4832H126.72V78.2832H123.44ZM125.12 78.2832V75.4032H142.72V78.2832H125.12ZM125.12 64.7232V61.8432H141.28V64.7232H125.12ZM125.12 52.3632V49.4832H142.4V52.3632H125.12ZM161.415 78.2832L154.655 68.8032L146.575 57.8832H150.295L156.535 66.6432L165.135 78.2832H161.415ZM154.855 66.8032L161.255 57.8832H164.855L156.535 68.9632L154.855 66.8032ZM156.215 69.0032L149.295 78.2832H145.655L154.655 66.7232L156.215 69.0032ZM179.686 78.6432C177.766 78.6432 176.153 78.1765 174.846 77.2432C173.54 76.3099 172.646 74.9899 172.166 73.2832L172.806 73.2032V86.4832H169.606V57.8832H172.606V62.6432L172.166 62.5232C172.673 60.9499 173.633 59.7232 175.046 58.8432C176.46 57.9365 178.1 57.4832 179.966 57.4832C181.78 57.4832 183.353 57.9232 184.686 58.8032C186.046 59.6832 187.1 60.9099 187.846 62.4832C188.593 64.0565 188.966 65.8965 188.966 68.0032C188.966 70.1365 188.58 72.0032 187.806 73.6032C187.033 75.2032 185.953 76.4432 184.566 77.3232C183.18 78.2032 181.553 78.6432 179.686 78.6432ZM179.206 75.8432C181.233 75.8432 182.82 75.1499 183.966 73.7632C185.113 72.3499 185.686 70.4299 185.686 68.0032C185.686 65.6032 185.113 63.7232 183.966 62.3632C182.82 60.9765 181.233 60.2832 179.206 60.2832C177.18 60.2832 175.58 60.9899 174.406 62.4032C173.233 63.7899 172.646 65.6965 172.646 68.1232C172.646 70.4965 173.233 72.3765 174.406 73.7632C175.58 75.1499 177.18 75.8432 179.206 75.8432ZM202.224 78.6832C200.277 78.6832 198.557 78.2299 197.064 77.3232C195.571 76.3899 194.397 75.1232 193.544 73.5232C192.691 71.9232 192.264 70.0832 192.264 68.0032C192.264 65.9232 192.677 64.0965 193.504 62.5232C194.357 60.9232 195.544 59.6832 197.064 58.8032C198.584 57.9232 200.331 57.4832 202.304 57.4832C204.197 57.4832 205.837 57.8965 207.224 58.7232C208.637 59.5499 209.717 60.7099 210.464 62.2032C211.237 63.6965 211.624 65.4565 211.624 67.4832C211.624 67.7499 211.611 68.0032 211.584 68.2432C211.584 68.4832 211.557 68.7499 211.504 69.0432H194.664V66.3632H209.544L208.504 67.8432C208.504 65.3899 207.957 63.5099 206.864 62.2032C205.797 60.8699 204.277 60.2032 202.304 60.2032C200.277 60.2032 198.637 60.9099 197.384 62.3232C196.157 63.7099 195.544 65.5899 195.544 67.9632C195.544 70.3899 196.157 72.3365 197.384 73.8032C198.637 75.2432 200.304 75.9632 202.384 75.9632C203.691 75.9632 204.837 75.6832 205.824 75.1232C206.811 74.5365 207.531 73.7099 207.984 72.6432H211.024C210.357 74.5099 209.237 75.9899 207.664 77.0832C206.117 78.1499 204.304 78.6832 202.224 78.6832ZM216.442 78.2832V57.8832H219.442V62.6832H219.642V78.2832H216.442ZM231.042 78.2832V64.9232C231.042 63.3765 230.656 62.2165 229.882 61.4432C229.109 60.6699 227.962 60.2832 226.442 60.2832C225.109 60.2832 223.922 60.5765 222.882 61.1632C221.869 61.7499 221.069 62.5632 220.482 63.6032C219.922 64.6432 219.642 65.8565 219.642 67.2432L219.122 62.4032C219.816 60.8832 220.869 59.6832 222.282 58.8032C223.722 57.9232 225.349 57.4832 227.162 57.4832C229.296 57.4832 231.002 58.0965 232.282 59.3232C233.589 60.5232 234.242 62.1099 234.242 64.0832V78.2832H231.042ZM251.028 78.6432C247.294 78.6432 244.308 77.8165 242.068 76.1632C239.828 74.4832 238.521 72.1232 238.148 69.0832H244.068C244.254 70.6299 245.001 71.8565 246.308 72.7632C247.614 73.6432 249.281 74.0832 251.308 74.0832C252.961 74.0832 254.228 73.7899 255.108 73.2032C256.014 72.6165 256.468 71.8299 256.468 70.8432C256.468 69.9099 256.201 69.1632 255.668 68.6032C255.134 68.0165 254.214 67.5499 252.908 67.2032L247.548 65.7232C244.801 64.9499 242.788 63.8965 241.508 62.5632C240.254 61.2032 239.628 59.5099 239.628 57.4832C239.628 55.7499 240.068 54.2565 240.948 53.0032C241.854 51.7232 243.121 50.7499 244.748 50.0832C246.374 49.3899 248.281 49.0432 250.468 49.0432C253.828 49.0432 256.508 49.8432 258.508 51.4432C260.508 53.0165 261.641 55.1099 261.908 57.7232H255.988C255.721 56.3099 255.068 55.2699 254.028 54.6032C253.014 53.9365 251.708 53.6032 250.108 53.6032C248.721 53.6032 247.614 53.8699 246.788 54.4032C245.961 54.9365 245.548 55.6565 245.548 56.5632C245.548 57.2565 245.774 57.8965 246.228 58.4832C246.681 59.0432 247.628 59.5232 249.068 59.9232L254.428 61.4032C257.254 62.1765 259.281 63.2432 260.508 64.6032C261.761 65.9365 262.388 67.6299 262.388 69.6832C262.388 72.5632 261.388 74.7765 259.388 76.3232C257.388 77.8699 254.601 78.6432 251.028 78.6432ZM275.203 78.6832C272.936 78.6832 270.963 78.2432 269.283 77.3632C267.603 76.4565 266.296 75.2032 265.363 73.6032C264.456 72.0032 264.003 70.1632 264.003 68.0832C264.003 65.9765 264.456 64.1365 265.363 62.5632C266.296 60.9632 267.59 59.7232 269.243 58.8432C270.896 57.9365 272.816 57.4832 275.003 57.4832C277.11 57.4832 278.936 57.9099 280.483 58.7632C282.03 59.6165 283.23 60.8032 284.083 62.3232C284.936 63.8432 285.363 65.6299 285.363 67.6832C285.363 68.1099 285.35 68.5099 285.323 68.8832C285.296 69.2299 285.256 69.5632 285.203 69.8832H267.523V65.9232H280.363L279.323 66.6432C279.323 64.9899 278.923 63.7765 278.123 63.0032C277.35 62.2032 276.283 61.8032 274.923 61.8032C273.35 61.8032 272.123 62.3365 271.243 63.4032C270.39 64.4699 269.963 66.0699 269.963 68.2032C269.963 70.2832 270.39 71.8299 271.243 72.8432C272.123 73.8565 273.43 74.3632 275.163 74.3632C276.123 74.3632 276.95 74.2032 277.643 73.8832C278.336 73.5632 278.856 73.0432 279.203 72.3232H284.843C284.176 74.2965 283.03 75.8565 281.403 77.0032C279.803 78.1232 277.736 78.6832 275.203 78.6832ZM298.563 78.6832C296.296 78.6832 294.323 78.2432 292.643 77.3632C290.963 76.4565 289.656 75.2032 288.723 73.6032C287.816 72.0032 287.363 70.1632 287.363 68.0832C287.363 65.9765 287.816 64.1365 288.723 62.5632C289.656 60.9632 290.949 59.7232 292.603 58.8432C294.256 57.9365 296.176 57.4832 298.363 57.4832C300.469 57.4832 302.296 57.9099 303.843 58.7632C305.389 59.6165 306.589 60.8032 307.443 62.3232C308.296 63.8432 308.723 65.6299 308.723 67.6832C308.723 68.1099 308.709 68.5099 308.683 68.8832C308.656 69.2299 308.616 69.5632 308.563 69.8832H290.883V65.9232H303.723L302.683 66.6432C302.683 64.9899 302.283 63.7765 301.483 63.0032C300.709 62.2032 299.643 61.8032 298.283 61.8032C296.709 61.8032 295.483 62.3365 294.603 63.4032C293.749 64.4699 293.323 66.0699 293.323 68.2032C293.323 70.2832 293.749 71.8299 294.603 72.8432C295.483 73.8565 296.789 74.3632 298.523 74.3632C299.483 74.3632 300.309 74.2032 301.003 73.8832C301.696 73.5632 302.216 73.0432 302.563 72.3232H308.203C307.536 74.2965 306.389 75.8565 304.763 77.0032C303.163 78.1232 301.096 78.6832 298.563 78.6832Z" fill="#3A59D1"/>
<defs>
<filter id="filter0_d_2003_157" x="21.8896" y="10.8953" width="66.3664" height="77.7493" filterUnits="userSpaceOnUse" color-interpolation-filters="sRGB">
<feFlood flood-opacity="0" result="BackgroundImageFix"/>
<feColorMatrix in="SourceAlpha" type="matrix" values="0 0 0 0 0 0 0 0 0 0 0 0 0 0 0 0 0 0 127 0" result="hardAlpha"/>
<feOffset/>
<feGaussianBlur stdDeviation="2"/>
<feComposite in2="hardAlpha" operator="out"/>
<feColorMatrix type="matrix" values="0 0 0 0 0 0 0 0 0 0 0 0 0 0 0 0 0 0 0.25 0"/>
<feBlend mode="normal" in2="BackgroundImageFix" result="effect1_dropShadow_2003_157"/>
<feBlend mode="normal" in="SourceGraphic" in2="effect1_dropShadow_2003_157" result="shape"/>
</filter>
<filter id="filter1_d_2003_157" x="20.8751" y="16.6902" width="74.4841" height="74.4841" filterUnits="userSpaceOnUse" color-interpolation-filters="sRGB">
<feFlood flood-opacity="0" result="BackgroundImageFix"/>
<feColorMatrix in="SourceAlpha" type="matrix" values="0 0 0 0 0 0 0 0 0 0 0 0 0 0 0 0 0 0 127 0" result="hardAlpha"/>
<feOffset/>
<feGaussianBlur stdDeviation="2"/>
<feComposite in2="hardAlpha" operator="out"/>
<feColorMatrix type="matrix" values="0 0 0 0 0 0 0 0 0 0 0 0 0 0 0 0 0 0 0.25 0"/>
<feBlend mode="normal" in2="BackgroundImageFix" result="effect1_dropShadow_2003_157"/>
<feBlend mode="normal" in="SourceGraphic" in2="effect1_dropShadow_2003_157" result="shape"/>
</filter>
<filter id="filter2_d_2003_157" x="14.5615" y="23.9221" width="103.611" height="100.317" filterUnits="userSpaceOnUse" color-interpolation-filters="sRGB">
<feFlood flood-opacity="0" result="BackgroundImageFix"/>
<feColorMatrix in="SourceAlpha" type="matrix" values="0 0 0 0 0 0 0 0 0 0 0 0 0 0 0 0 0 0 127 0" result="hardAlpha"/>
<feMorphology radius="2" operator="erode" in="SourceAlpha" result="effect1_dropShadow_2003_157"/>
<feOffset dx="-3"/>
<feGaussianBlur stdDeviation="4"/>
<feComposite in2="hardAlpha" operator="out"/>
<feColorMatrix type="matrix" values="0 0 0 0 0 0 0 0 0 0 0 0 0 0 0 0 0 0 0.25 0"/>
<feBlend mode="normal" in2="BackgroundImageFix" result="effect1_dropShadow_2003_157"/>
<feBlend mode="normal" in="SourceGraphic" in2="effect1_dropShadow_2003_157" result="shape"/>
</filter>
</defs>
</svg>
